<mxfile host="Electron" agent="Mozilla/5.0 (Windows NT 10.0; Win64; x64) AppleWebKit/537.36 (KHTML, like Gecko) draw.io/24.7.17 Chrome/128.0.6613.36 Electron/32.0.1 Safari/537.36" version="24.7.17">
  <diagram name="Page-1" id="sZ2jYWhIf5V467-SxP9Y">
    <mxGraphModel dx="1098" dy="828" grid="1" gridSize="10" guides="1" tooltips="1" connect="1" arrows="1" fold="1" page="1" pageScale="1" pageWidth="850" pageHeight="1100" math="0" shadow="0">
      <root>
        <mxCell id="0" />
        <mxCell id="1" parent="0" />
        <mxCell id="SYHLoigSp2c_G1k-SftJ-3" style="edgeStyle=orthogonalEdgeStyle;rounded=0;orthogonalLoop=1;jettySize=auto;html=1;entryX=0.5;entryY=0;entryDx=0;entryDy=0;" edge="1" parent="1" source="SYHLoigSp2c_G1k-SftJ-1" target="SYHLoigSp2c_G1k-SftJ-2">
          <mxGeometry relative="1" as="geometry" />
        </mxCell>
        <mxCell id="SYHLoigSp2c_G1k-SftJ-1" value="START" style="ellipse;whiteSpace=wrap;html=1;" vertex="1" parent="1">
          <mxGeometry x="365" y="170" width="120" height="80" as="geometry" />
        </mxCell>
        <mxCell id="SYHLoigSp2c_G1k-SftJ-5" style="edgeStyle=orthogonalEdgeStyle;rounded=0;orthogonalLoop=1;jettySize=auto;html=1;entryX=0.5;entryY=0;entryDx=0;entryDy=0;" edge="1" parent="1" source="SYHLoigSp2c_G1k-SftJ-2" target="SYHLoigSp2c_G1k-SftJ-4">
          <mxGeometry relative="1" as="geometry" />
        </mxCell>
        <mxCell id="SYHLoigSp2c_G1k-SftJ-2" value="n" style="shape=parallelogram;perimeter=parallelogramPerimeter;whiteSpace=wrap;html=1;fixedSize=1;" vertex="1" parent="1">
          <mxGeometry x="365" y="290" width="120" height="60" as="geometry" />
        </mxCell>
        <mxCell id="SYHLoigSp2c_G1k-SftJ-7" style="edgeStyle=orthogonalEdgeStyle;rounded=0;orthogonalLoop=1;jettySize=auto;html=1;entryX=0.5;entryY=0;entryDx=0;entryDy=0;" edge="1" parent="1" source="SYHLoigSp2c_G1k-SftJ-4" target="SYHLoigSp2c_G1k-SftJ-6">
          <mxGeometry relative="1" as="geometry" />
        </mxCell>
        <mxCell id="SYHLoigSp2c_G1k-SftJ-4" value="n % 2" style="rounded=0;whiteSpace=wrap;html=1;" vertex="1" parent="1">
          <mxGeometry x="365" y="400" width="120" height="60" as="geometry" />
        </mxCell>
        <mxCell id="SYHLoigSp2c_G1k-SftJ-6" value="n%2==0" style="rhombus;whiteSpace=wrap;html=1;" vertex="1" parent="1">
          <mxGeometry x="385" y="510" width="80" height="80" as="geometry" />
        </mxCell>
        <mxCell id="SYHLoigSp2c_G1k-SftJ-8" value="so chan" style="shape=parallelogram;perimeter=parallelogramPerimeter;whiteSpace=wrap;html=1;fixedSize=1;" vertex="1" parent="1">
          <mxGeometry x="245" y="640" width="120" height="60" as="geometry" />
        </mxCell>
        <mxCell id="SYHLoigSp2c_G1k-SftJ-9" value="so le" style="shape=parallelogram;perimeter=parallelogramPerimeter;whiteSpace=wrap;html=1;fixedSize=1;" vertex="1" parent="1">
          <mxGeometry x="485" y="640" width="120" height="60" as="geometry" />
        </mxCell>
        <mxCell id="SYHLoigSp2c_G1k-SftJ-10" style="edgeStyle=orthogonalEdgeStyle;rounded=0;orthogonalLoop=1;jettySize=auto;html=1;entryX=0.567;entryY=0.017;entryDx=0;entryDy=0;entryPerimeter=0;" edge="1" parent="1" source="SYHLoigSp2c_G1k-SftJ-6" target="SYHLoigSp2c_G1k-SftJ-8">
          <mxGeometry relative="1" as="geometry" />
        </mxCell>
        <mxCell id="SYHLoigSp2c_G1k-SftJ-11" style="edgeStyle=orthogonalEdgeStyle;rounded=0;orthogonalLoop=1;jettySize=auto;html=1;entryX=0.633;entryY=0;entryDx=0;entryDy=0;entryPerimeter=0;" edge="1" parent="1" source="SYHLoigSp2c_G1k-SftJ-6" target="SYHLoigSp2c_G1k-SftJ-9">
          <mxGeometry relative="1" as="geometry" />
        </mxCell>
        <mxCell id="SYHLoigSp2c_G1k-SftJ-12" value="YES" style="text;html=1;align=center;verticalAlign=middle;resizable=0;points=[];autosize=1;strokeColor=none;fillColor=none;" vertex="1" parent="1">
          <mxGeometry x="305" y="508" width="50" height="30" as="geometry" />
        </mxCell>
        <mxCell id="SYHLoigSp2c_G1k-SftJ-13" value="NO" style="text;html=1;align=center;verticalAlign=middle;resizable=0;points=[];autosize=1;strokeColor=none;fillColor=none;" vertex="1" parent="1">
          <mxGeometry x="520" y="508" width="40" height="30" as="geometry" />
        </mxCell>
        <mxCell id="SYHLoigSp2c_G1k-SftJ-14" value="END" style="ellipse;whiteSpace=wrap;html=1;" vertex="1" parent="1">
          <mxGeometry x="365" y="810" width="120" height="80" as="geometry" />
        </mxCell>
        <mxCell id="SYHLoigSp2c_G1k-SftJ-15" style="edgeStyle=orthogonalEdgeStyle;rounded=0;orthogonalLoop=1;jettySize=auto;html=1;entryX=0.292;entryY=0.1;entryDx=0;entryDy=0;entryPerimeter=0;" edge="1" parent="1" source="SYHLoigSp2c_G1k-SftJ-8" target="SYHLoigSp2c_G1k-SftJ-14">
          <mxGeometry relative="1" as="geometry" />
        </mxCell>
        <mxCell id="SYHLoigSp2c_G1k-SftJ-16" style="edgeStyle=orthogonalEdgeStyle;rounded=0;orthogonalLoop=1;jettySize=auto;html=1;entryX=0.708;entryY=0;entryDx=0;entryDy=0;entryPerimeter=0;" edge="1" parent="1" source="SYHLoigSp2c_G1k-SftJ-9" target="SYHLoigSp2c_G1k-SftJ-14">
          <mxGeometry relative="1" as="geometry" />
        </mxCell>
      </root>
    </mxGraphModel>
  </diagram>
</mxfile>
